<svg xmlns="http://www.w3.org/2000/svg" xmlns:xlink="http://www.w3.org/1999/xlink" version="1.1" width="1000" height="1000" viewBox="0 0 1000 1000" xml:space="preserve">
<defs>
</defs>
<g transform="matrix(1 0 0 1 620 500)" id="background-logo">
<rect style="stroke: none; stroke-width: 0; stroke-dasharray: none; stroke-linecap: butt; stroke-dashoffset: 0; stroke-linejoin: miter; stroke-miterlimit: 4; fill: rgb(26,26,26); fill-opacity: 0; fill-rule: nonzero; opacity: 1;" paint-order="stroke" x="-500" y="-500" rx="0" ry="0" width="1000" height="1000"/>
</g>
<g transform="matrix(3.019 3.019 -3.019 3.019 500 500)" id="logo-logo">
<g style="" paint-order="stroke">
		<g transform="matrix(3.503757226792904 0 0 3.503757226792903 0 0)">
<circle style="stroke: none; stroke-width: 1; stroke-dasharray: none; stroke-linecap: butt; stroke-dashoffset: 0; stroke-linejoin: miter; stroke-miterlimit: 4; fill: rgb(255,255,255); fill-rule: evenodd; opacity: 1;" paint-order="stroke" cx="0" cy="0" r="32.8"/>
</g>
		<g transform="matrix(3.503757226792904 0 0 3.503757226792903 -0.17518786133967978 0)">
<path style="stroke: none; stroke-width: 1; stroke-dasharray: none; stroke-linecap: butt; stroke-dashoffset: 0; stroke-linejoin: miter; stroke-miterlimit: 4; fill: rgb(26,26,26); fill-rule: evenodd; opacity: 1;" paint-order="stroke" transform=" translate(-71.95, -72)" d="M 82.4 74.9 L 86.4 89.7 L 72.1 89.7 L 67.69999999999999 89.7 C 62.79999999999999 89.7 57.79999999999999 85.7 56.499999999999986 80.8 L 54.1 72 L 58.5 72 C 63.4 72 68.4 76 69.7 80.9 C 69.9 81.60000000000001 70.60000000000001 82.2 71.3 82.2 C 72 82.2 72.39999999999999 81.60000000000001 72.3 80.9 L 70 72 L 70.5 73.9 C 70.2 72.9 69.2 72 68.1 72 L 66 72 C 63.6 72 62.1 71.2 61.5 69.1 L 57.5 54.3 L 71.8 54.3 L 76.2 54.3 C 81.10000000000001 54.3 86.10000000000001 58.3 87.4 63.199999999999996 L 89.80000000000001 72.1 L 85.4 72.1 C 80.5 72.1 75.5 68.1 74.2 63.199999999999996 C 74 62.49999999999999 73.3 61.9 72.60000000000001 61.9 C 71.9 61.9 71.50000000000001 62.5 71.60000000000001 63.199999999999996 L 74 72 L 73.5 70.1 C 73.8 71.1 74.8 72 75.9 72 L 78 72 C 80.3 72 81.9 72.8 82.4 74.9 z" stroke-linecap="round"/>
</g>
</g>
</g>
</svg>